<?xml version="1.0" encoding="UTF-8"?>
<!-- Generator: Adobe Illustrator 19.2.0, SVG Export Plug-In . SVG Version: 6.00 Build 0)  -->
<svg version="1.1" id="Layer_1" xmlns="http://www.w3.org/2000/svg" xmlns:xlink="http://www.w3.org/1999/xlink" x="0px" y="0px" viewBox="0 0 1005 430" style="enable-background:new 0 0 1005 430;" xml:space="preserve">
<style type="text/css">
	.st0{fill:white;}
	.st1{fill:#DD0010;}
	.st2{fill:#DD0010;stroke:#DD0010;stroke-miterlimit:10;}
	.st3{fill:#1C75BC;stroke:#1C75BC;stroke-miterlimit:10;}
	.st4{fill:#231F20;}
	.st5{fill:#1C75BC;}
	.st6{fill:#ADCDE7;}
</style>
<g id="LWPOLYLINE_5_">
	<radialGradient id="SVGID_1_" cx="502.5" cy="215" r="384.159" gradientUnits="userSpaceOnUse">
		<stop offset="0" style="stop-color:#FFFFFF"/>
		<stop offset="0.5762" style="stop-color:#F9FAFA"/>
		<stop offset="1" style="stop-color:#F1F2F2"/>
	</radialGradient>
	<path class="st0" d="M1002.5,142.5v145c0,77.3-62.7,140-140,140h-720c-77.3,0-140-62.7-140-140v-145c0-77.3,62.7-140,140-140h720   C939.8,2.5,1002.5,65.2,1002.5,142.5z"/>
</g>
<g id="CIRCLE_1_">
	<path class="st1" d="M597.5,105c0-2.8,2.2-5,5-5s5,2.2,5,5s-2.2,5-5,5S597.5,107.8,597.5,105L597.5,105z"/>
</g>
<g id="CIRCLE_2_">
	<path class="st1" d="M597.5,325c0-2.8,2.2-5,5-5s5,2.2,5,5c0,2.8-2.2,5-5,5S597.5,327.8,597.5,325L597.5,325z"/>
</g>
<g id="CIRCLE_3_">
	<path class="st1" d="M397.5,325c0-2.8,2.2-5,5-5s5,2.2,5,5c0,2.8-2.2,5-5,5S397.5,327.8,397.5,325L397.5,325z"/>
</g>
<g id="CIRCLE_4_">
	<path class="st1" d="M397.5,105c0-2.8,2.2-5,5-5s5,2.2,5,5s-2.2,5-5,5S397.5,107.8,397.5,105L397.5,105z"/>
</g>
<g id="CIRCLE_5_">
	<path class="st1" d="M832.5,325c0-2.8,2.2-5,5-5s5,2.2,5,5c0,2.8-2.2,5-5,5S832.5,327.8,832.5,325L832.5,325z"/>
</g>
<g id="CIRCLE_6_">
	<path class="st1" d="M832.5,105c0-2.8,2.2-5,5-5s5,2.2,5,5s-2.2,5-5,5S832.5,107.8,832.5,105L832.5,105z"/>
</g>
<g id="CIRCLE_7_">
	<path class="st1" d="M162.5,105c0-2.8,2.2-5,5-5s5,2.2,5,5s-2.2,5-5,5S162.5,107.8,162.5,105L162.5,105z"/>
</g>
<g id="CIRCLE_8_">
	<path class="st1" d="M162.5,325c0-2.8,2.2-5,5-5s5,2.2,5,5c0,2.8-2.2,5-5,5S162.5,327.8,162.5,325L162.5,325z"/>
</g>
<path class="st2" d="M912.1,317.5c-3.6-35.5-31.6-63.6-67.1-67.1v-10h-0.8v9.9c-4.4-0.4-8.9-0.4-13.3,0v-9.9H830v10  c-41.2,4.1-71.3,40.9-67.1,82.1c3.6,35.5,31.6,63.6,67.1,67.1v10h0.8v-9.9c4.4,0.4,8.9,0.4,13.3,0v9.9h0.8v-10  C886.2,395.5,916.3,358.7,912.1,317.5z M837.5,399.2c-41,0-74.2-33.2-74.2-74.2s33.2-74.2,74.2-74.2c41,0,74.2,33.2,74.2,74.2  S878.5,399.2,837.5,399.2z"/>
<path class="st3" d="M502.5,140c-41.4,0-75,33.6-75,75c0,41.4,33.6,75,75,75s75-33.6,75-75C577.5,173.6,543.9,140,502.5,140z   M502.5,289.2c-41,0-74.2-33.2-74.2-74.2s33.2-74.2,74.2-74.2s74.2,33.2,74.2,74.2S543.5,289.2,502.5,289.2z"/>
<g id="LWPOLYLINE_1_">
	<polygon class="st2" points="807.5,320.4 807.5,321.3 827.5,321.3 827.5,306.3 826.7,306.3 826.7,320.4  "/>
</g>
<g id="LWPOLYLINE_2_">
	<polygon class="st2" points="807.5,329.6 807.5,328.8 827.5,328.8 827.5,343.8 826.7,343.8 826.7,329.6  "/>
</g>
<g id="LWPOLYLINE_3_">
	<polygon class="st2" points="848.3,343.8 847.5,343.8 847.5,328.8 867.5,328.8 867.5,329.6 848.3,329.6  "/>
</g>
<g id="LWPOLYLINE_4_">
	<polygon class="st2" points="848.3,306.3 847.5,306.3 847.5,321.3 867.5,321.3 867.5,320.4 848.3,320.4  "/>
</g>
<path class="st2" d="M912.1,97.5C908.6,62,880.5,33.9,845,30.4v-10h-0.8v9.9c-4.4-0.4-8.9-0.4-13.3,0v-9.9H830v10  c-41.2,4.1-71.3,40.9-67.1,82.1c3.6,35.5,31.6,63.6,67.1,67.1v10h0.8v-9.9c4.4,0.4,8.9,0.4,13.3,0v9.9h0.8v-10  C886.2,175.5,916.3,138.7,912.1,97.5z M837.5,179.2c-41,0-74.2-33.2-74.2-74.2s33.2-74.2,74.2-74.2c41,0,74.2,33.2,74.2,74.2  S878.5,179.2,837.5,179.2z"/>
<g id="LWPOLYLINE_6_">
	<polygon class="st2" points="848.3,123.8 847.5,123.8 847.5,108.8 867.5,108.8 867.5,109.6 848.3,109.6  "/>
</g>
<rect x="500" y="2.5" class="st1" width="5" height="425"/>
<g id="LWPOLYLINE_7_">
	<polygon class="st2" points="848.3,86.3 847.5,86.3 847.5,101.3 867.5,101.3 867.5,100.4 848.3,100.4  "/>
</g>
<g id="LWPOLYLINE_8_">
	<polygon class="st2" points="807.5,109.6 807.5,108.8 827.5,108.8 827.5,123.8 826.7,123.8 826.7,109.6  "/>
</g>
<g id="LWPOLYLINE_9_">
	<polygon class="st2" points="807.5,100.4 807.5,101.3 827.5,101.3 827.5,86.3 826.7,86.3 826.7,100.4  "/>
</g>
<path class="st2" d="M242.1,317.5c-3.6-35.5-31.6-63.6-67.1-67.1v-10h-0.8v9.9c-4.4-0.4-8.9-0.4-13.3,0v-9.9H160v10  c-41.2,4.1-71.3,40.9-67.1,82.1c3.6,35.5,31.6,63.6,67.1,67.1v10h0.8v-9.9c4.4,0.4,8.9,0.4,13.3,0v9.9h0.8v-10  C216.2,395.5,246.3,358.7,242.1,317.5z M167.5,399.2c-41,0-74.2-33.2-74.2-74.2s33.2-74.2,74.2-74.2s74.2,33.2,74.2,74.2  S208.5,399.2,167.5,399.2z"/>
<g id="LWPOLYLINE_11_">
	<polygon class="st2" points="178.3,343.8 177.5,343.8 177.5,328.8 197.5,328.8 197.5,329.6 178.3,329.6  "/>
</g>
<g id="LWPOLYLINE_12_">
	<polygon class="st2" points="178.3,306.3 177.5,306.3 177.5,321.3 197.5,321.3 197.5,320.4 178.3,320.4  "/>
</g>
<g id="LWPOLYLINE_13_">
	<polygon class="st2" points="137.5,329.6 137.5,328.8 157.5,328.8 157.5,343.8 156.7,343.8 156.7,329.6  "/>
</g>
<g id="LWPOLYLINE_14_">
	<polygon class="st2" points="137.5,320.4 137.5,321.3 157.5,321.3 157.5,306.3 156.7,306.3 156.7,320.4  "/>
</g>
<path class="st2" d="M242.1,97.5C238.6,62,210.5,33.9,175,30.4v-10h-0.8v9.9c-4.4-0.4-8.9-0.4-13.3,0v-9.9H160v10  c-41.2,4.1-71.3,40.9-67.1,82.1c3.6,35.5,31.6,63.6,67.1,67.1v10h0.8v-9.9c4.4,0.4,8.9,0.4,13.3,0v9.9h0.8v-10  C216.2,175.5,246.3,138.7,242.1,97.5z M167.5,179.2c-41,0-74.2-33.2-74.2-74.2s33.2-74.2,74.2-74.2S241.7,64,241.7,105  S208.5,179.2,167.5,179.2z"/>
<g id="LWPOLYLINE_16_">
	<polygon class="st2" points="178.3,123.8 177.5,123.8 177.5,108.8 197.5,108.8 197.5,109.6 178.3,109.6  "/>
</g>
<g id="LWPOLYLINE_17_">
	<polygon class="st2" points="178.3,86.3 177.5,86.3 177.5,101.3 197.5,101.3 197.5,100.4 178.3,100.4  "/>
</g>
<g id="LWPOLYLINE_18_">
	<polygon class="st2" points="137.5,109.6 137.5,108.8 157.5,108.8 157.5,123.8 156.7,123.8 156.7,109.6  "/>
</g>
<g id="LWPOLYLINE_19_">
	<polygon class="st2" points="137.5,100.4 137.5,101.3 157.5,101.3 157.5,86.3 156.7,86.3 156.7,100.4  "/>
</g>
<g id="LWPOLYLINE_20_">
	<polygon class="st4" points="41.7,200.8 57.5,200.8 57.5,200 40.8,200 40.8,230 57.5,230 57.5,229.2 41.7,229.2  "/>
</g>
<g id="LWPOLYLINE_23_">
	<polygon class="st4" points="964.2,200 947.5,200 947.5,200.8 963.3,200.8 963.3,229.2 947.5,229.2 947.5,230 964.2,230  "/>
</g>
<rect x="375" y="2.5" class="st5" width="5" height="425"/>
<rect x="625" y="2.5" class="st5" width="5" height="425"/>
<g id="CIRCLE_9_">
	<path class="st5" d="M500,215c0-1.4,1.1-2.5,2.5-2.5s2.5,1.1,2.5,2.5c0,1.4-1.1,2.5-2.5,2.5S500,216.4,500,215L500,215z"/>
</g>
<path class="st6" d="M86.7,215c0,16.1-13.1,29.2-29.2,29.2v-58.3C73.6,185.8,86.7,198.9,86.7,215z"/>
<path class="st1" d="M87.5,215c0,16.6-13.4,30-30,30v-0.8c16.1,0,29.2-13.1,29.2-29.2s-13.1-29.2-29.2-29.2V185  C74.1,185,87.5,198.4,87.5,215z"/>
<polygon class="st2" points="57.5,398.7 57.5,399.2 56.7,399.2 56.7,398.1 56.7,31.9 56.7,31.3 57.5,31.3 57.5,185 57.5,185.8   57.5,244.2 57.5,245 "/>
<path class="st6" d="M947.5,185.8v58.3c-16.1,0-29.2-13.1-29.2-29.2S931.4,185.8,947.5,185.8z"/>
<polygon class="st2" points="948.3,398.1 948.3,398.7 947.5,398.7 947.5,245 947.5,244.2 947.5,185.8 947.5,185 947.5,31.3   948.3,31.3 948.3,31.9 "/>
<path class="st1" d="M918.3,215c0,16.1,13.1,29.2,29.2,29.2v0.8c-16.6,0-30-13.4-30-30s13.4-30,30-30v0.8  C931.4,185.8,918.3,198.9,918.3,215z"/>
<path d="M862.5,0h-720C63.8,0,0,63.8,0,142.5v145C0,366.2,63.8,430,142.5,430h720c78.7,0,142.5-63.8,142.5-142.5v-145  C1005,63.8,941.2,0,862.5,0z M1002.5,287.5c0,77.3-62.7,140-140,140h-720c-77.3,0-140-62.7-140-140v-145c0-77.3,62.7-140,140-140  h720c77.3,0,140,62.7,140,140V287.5z"/>
</svg>