<?xml version="1.0" encoding="UTF-8"?>
<svg space="preserve" version="1.0" viewBox="0 0 748.5 347.5" xmlns:xlink="http://www.w3.org/1999/xlink" xmlns="http://www.w3.org/2000/svg">
<namedview cx="444.26333" cy="323.69756" bordercolor="#666666" borderopacity="1.0" current-layer="svg2" pagecolor="#ffffff" pageopacity="0.0" pageshadow="2" window-height="539" window-width="759" window-x="1665" window-y="343" zoom="0.93900245"></namedview>
<pattern id="b" x="45.958" y="544.964" width="800" height="450" patternUnits="userSpaceOnUse" viewBox="0 -450 800 450">
<g>
<polygon points="0 0 800 0 800 -450 0 -450" fill="none"/>
</g>
</pattern>
<pattern id="a" x="45.958" y="544.964" width="800" height="450" patternUnits="userSpaceOnUse" viewBox="0 -450 800 450">
<g>
<polygon points="0 0 800 0 800 -450 0 -450" fill="none"/>
</g>
</pattern>
<g>
<path d="m105.38 2.002h537.75c57.091 0 103.37 41.346 103.37 92.348v158.8c0 51.003-46.281 92.349-103.37 92.349h-537.75c-57.091 0-103.37-41.346-103.37-92.349v-158.8c-1e-3 -51.003 46.281-92.349 103.37-92.349z" fill="#fff" stroke="#000" stroke-linecap="round" stroke-linejoin="round" stroke-width="4.0045"/>
<ellipse cx="376.74" cy="170.03" rx="37.321" ry="38.21" fill="none" stroke="#46b" stroke-linecap="round" stroke-linejoin="round" stroke-width="3.0097"/>
<ellipse cx="249.02" cy="82.169" rx="5.269" ry="5.334" fill="#c33" stroke="#e24b5a" stroke-linecap="round" stroke-linejoin="round" stroke-width=".5016"/>
<ellipse cx="249.02" cy="258.41" rx="5.269" ry="5.335" fill="#c33" stroke="#e24b5a" stroke-linecap="round" stroke-linejoin="round" stroke-width=".5016"/>
<ellipse cx="504.02" cy="258.41" rx="5.269" ry="5.335" fill="#c33" stroke="#e24b5a" stroke-linecap="round" stroke-linejoin="round" stroke-width=".5016"/>
<ellipse cx="504.02" cy="82.169" rx="5.269" ry="5.334" fill="#c33" stroke="#e24b5a" stroke-linecap="round" stroke-linejoin="round" stroke-width=".5016"/>
<line x1="377" x2="377.34" y1="7.88" y2="346" fill="none" stroke="#c33" stroke-dasharray="8.9929, 8.9929" stroke-linecap="round" stroke-width="2.9976"/>
<line x1="227.51" x2="227.77" y1="3.583" y2="343.48" fill="none" stroke="#46b" stroke-width="8.0258"/>
<line x1="526.63" x2="526.64" y1="3.993" y2="343.48" fill="none" stroke="#46b" stroke-width="8.0258"/>
<path d="m170.67 256.73c0 22.072-18.294 39.986-40.834 39.986s-40.834-17.914-40.834-39.986c0-22.073 18.294-39.988 40.834-39.988s40.834 17.915 40.834 39.988zm-50.054-39.988v-9.773m17.563-1e-3v10.662m1.756 79.086v9.775m-20.197-8.886v8.887" fill="none" stroke="#c33" stroke-linecap="round" stroke-linejoin="round" stroke-width="3.0097"/>
<path d="m136.59 257.94c0 3.343-2.681 6.056-5.983 6.056s-5.983-2.713-5.983-6.056c0-3.342 2.681-6.055 5.983-6.055 3.296 0 5.973 2.699 5.983 6.035" fill="#c33"/>
<path d="m170.67 81.729c0 22.073-18.294 39.988-40.834 39.988s-40.834-17.915-40.834-39.988 18.294-39.987 40.834-39.987 40.834 17.915 40.834 39.987zm-50.054-39.987v-9.774m17.563 0v10.663m1.756 79.086v9.774m-20.197-8.886v8.886" fill="none" stroke="#c33" stroke-linecap="round" stroke-linejoin="round" stroke-width="3.0097"/>
<path d="m136.28 81.699c0 3.343-2.681 6.055-5.983 6.055-3.304 0-5.984-2.712-5.984-6.055 0-3.342 2.681-6.055 5.984-6.055 3.296 0 5.972 2.699 5.983 6.034" fill="#c33"/>
<path d="m656.67 81.729c0 22.073-18.294 39.988-40.834 39.988s-40.834-17.915-40.834-39.988 18.294-39.987 40.834-39.987 40.834 17.915 40.834 39.987zm-50.054-39.987v-9.774m17.562 0v10.663m1.757 79.086v9.774m-20.197-8.886v8.886" fill="none" stroke="#c33" stroke-linecap="round" stroke-linejoin="round" stroke-width="3.0097"/>
<path d="m622.47 81.699c0 3.343-2.682 6.055-5.984 6.055s-5.983-2.712-5.983-6.055c0-3.342 2.681-6.055 5.983-6.055 3.296 0 5.973 2.699 5.983 6.034" fill="#c33"/>
<path d="m656.67 256.73c0 22.072-18.294 39.986-40.834 39.986s-40.834-17.914-40.834-39.986c0-22.073 18.294-39.988 40.834-39.988s40.834 17.915 40.834 39.988zm-50.054-39.988v-9.773m17.562-1e-3v10.662m1.757 79.086v9.775m-20.197-8.886v8.887" fill="none" stroke="#c33" stroke-linecap="round" stroke-linejoin="round" stroke-width="3.0097"/>
<path d="m622.47 257.94c0 3.343-2.681 6.056-5.983 6.056-3.304 0-5.984-2.713-5.984-6.056 0-3.342 2.681-6.055 5.984-6.055 3.296 0 5.972 2.699 5.983 6.035" fill="#c33"/>
<pattern id="d" xlink:href="#a" patternTransform="matrix(.1651 0 0 -.167 -6677 -9802.6)"></pattern>
<path d="m66.484 192.92s-12.223-0.115-12.723-0.383c-10.192-5.446-0.465-14.42-0.795-14.735-7.735-7.384-1.49-15.509 2.1-15.216l11.21-0.127" fill="url(#d)" stroke="#c33" stroke-width="3.0097"/>
<path d="m65.6 12.586-0.045 322.59m0.691-188.06c42.611-0.1 44.025 60.907-0.423 60.649m0.336-48.495c1.011 0.146 15.232-0.098 15.232-0.098l0.277 35.943h-15.962" fill="none" stroke="#c33" stroke-linecap="round" stroke-width="3.0097"/>
<pattern id="c" xlink:href="#b" patternTransform="matrix(-.1651 -.0013 -.0013 .167 -8450.3 -6867.9)"></pattern>
<path d="m679.98 159.67s12.222 0.211 12.719 0.481c10.15 5.525 0.355 14.424 0.684 14.741 7.679 7.444 1.372 15.52-2.215 15.199l-11.211 0.04" fill="url(#c)" stroke="#c33" stroke-width="3.0097"/>
<path d="m679.86 335.94 0.187-324.49m-0.176 194.04c-43.341-0.202-45.17-60.536 0.062-60.65m-3e-3 48.849c-6.295-0.432-15.113-0.372-15.113-0.372l-0.356-35.948 15.493 0.121" fill="none" stroke="#c33" stroke-linecap="round" stroke-width="3.0097"/>
<path d="m381.22 169.98c2e-3 1.435-0.733 2.762-1.928 3.48s-2.668 0.718-3.863 0c-1.195-0.719-1.931-2.046-1.929-3.48-2e-3 -1.436 0.733-2.763 1.929-3.48 1.195-0.719 2.668-0.719 3.863 0 1.195 0.717 1.93 2.044 1.928 3.48z" fill="#5567b0"/>
<path d="m316.08 343.92c-0.445-16.982 11.167-32.822 30.357-41.411 19.191-8.589 42.964-8.585 62.15 0.01s30.79 24.438 30.336 41.42" fill="none" stroke="#c33" stroke-width="2.1309"/>
</g>
</svg>
